<svg width="27" height="24" viewBox="0 0 27 24" fill="none" xmlns="http://www.w3.org/2000/svg">
<path d="M26.3301 24H14.7812V23.5957C15.8242 23.502 16.5508 23.3262 16.9609 23.0684C17.6875 22.6113 18.0508 21.9785 18.0508 21.1699C18.0508 20.6895 17.8867 20.0449 17.5586 19.2363L17.2598 18.498L15.5723 14.3496H7.83789L6.92383 16.7754L6.48438 17.8652C5.95703 19.1543 5.69336 20.168 5.69336 20.9062C5.69336 21.3398 5.78711 21.7441 5.97461 22.1191C6.17383 22.4941 6.4375 22.7988 6.76562 23.0332C7.22266 23.3496 7.80859 23.5371 8.52344 23.5957V24H0.648438V23.5957C1.26953 23.5605 1.81445 23.4082 2.2832 23.1387C2.75195 22.8691 3.20898 22.4355 3.6543 21.8379C4.0293 21.3574 4.39258 20.7422 4.74414 19.9922C5.10742 19.2305 5.58203 18.0938 6.16797 16.582L12.6016 0.00585938H13.6035L21.25 18.4805C21.8242 19.875 22.2812 20.8711 22.6211 21.4688C22.9609 22.0664 23.3301 22.5176 23.7285 22.8223C24.0098 23.0332 24.332 23.1973 24.6953 23.3145C25.0586 23.4199 25.6035 23.5137 26.3301 23.5957V24ZM15.291 13.6289L11.5996 4.52344L8.11914 13.6289H15.291Z" fill="black"/>
</svg>
