<svg width="18" height="19" viewBox="0 0 18 19" fill="none" xmlns="http://www.w3.org/2000/svg">
<path d="M17.3071 14.0161V16.5869C17.3081 16.8255 17.2604 17.0618 17.1672 17.2804C17.074 17.4991 16.9373 17.6954 16.7658 17.8567C16.5944 18.0181 16.392 18.1409 16.1716 18.2174C15.9512 18.2938 15.7176 18.3222 15.4859 18.3007C12.9152 18.0142 10.4459 17.1132 8.27627 15.67C6.25776 14.3543 4.54642 12.5989 3.26377 10.5285C1.8519 8.29292 0.973261 5.74769 0.699042 3.09895C0.678165 2.86198 0.70562 2.62315 0.77966 2.39766C0.853699 2.17218 0.9727 1.96497 1.12909 1.78925C1.28547 1.61352 1.47582 1.47312 1.688 1.37698C1.90018 1.28085 2.12956 1.23108 2.36152 1.23086H4.86777C5.27321 1.22676 5.66626 1.37403 5.97367 1.64521C6.28107 1.91638 6.48186 2.29297 6.53861 2.70476C6.64439 3.52746 6.84057 4.33525 7.1234 5.11271C7.2358 5.41943 7.26012 5.75276 7.1935 6.07322C7.12687 6.39368 6.97207 6.68783 6.74746 6.92082L5.68648 8.00911C6.87574 10.1545 8.60748 11.9308 10.699 13.1506L11.76 12.0623C11.9871 11.832 12.2739 11.6732 12.5863 11.6048C12.8987 11.5365 13.2237 11.5614 13.5227 11.6767C14.2806 11.9668 15.0682 12.1681 15.8702 12.2766C16.276 12.3353 16.6467 12.545 16.9116 12.8657C17.1765 13.1864 17.3173 13.5959 17.3071 14.0161Z" stroke="black" stroke-linecap="round" stroke-linejoin="round"/>
</svg>
