<svg width="18" height="12" viewBox="0 0 18 12" fill="none" xmlns="http://www.w3.org/2000/svg">
<path fill-rule="evenodd" clip-rule="evenodd" d="M17.5763 0.78125C17.7098 0.340625 17.5763 0.0203124 16.9856 0.0203124H15.0218C14.5264 0.0203124 14.2976 0.300781 14.1641 0.600781C14.1641 0.600781 13.1539 3.16328 11.7431 4.82461C11.2856 5.30508 11.076 5.46523 10.8281 5.46523C10.6946 5.46523 10.5229 5.30508 10.5229 4.86484V0.760547C10.5229 0.240234 10.3706 0 9.95101 0H6.86251C6.55726 0 6.36676 0.240234 6.36676 0.480469C6.36676 0.98086 7.07213 1.10117 7.14826 2.50234V5.54688C7.14826 6.20742 7.03576 6.32812 6.78601 6.32812C6.11888 6.32812 4.49851 3.7457 3.5265 0.803125C3.3375 0.220312 3.1455 0 2.64975 0H0.667126C0.0952502 0 0 0.280078 0 0.580469C0 1.12109 0.667126 3.84336 3.10725 7.44648C4.72763 9.90742 7.03426 11.2301 9.11214 11.2301C10.3706 11.2301 10.5229 10.9297 10.5229 10.4293V8.56758C10.5229 7.96719 10.6373 7.86719 11.0378 7.86719C11.3235 7.86719 11.8384 8.02695 13.0013 9.2082C14.3355 10.6094 14.5643 11.25 15.3079 11.25H17.2714C17.8433 11.25 18.1103 10.9496 17.9576 10.3691C17.7863 9.78867 17.1379 8.94805 16.299 7.94727C15.8415 7.38711 15.1553 6.76641 14.9456 6.46602C14.6599 6.06562 14.736 5.90547 14.9456 5.54531C14.9265 5.54531 17.3288 1.98203 17.5763 0.779688" fill="black"/>
</svg>
