<svg width="38" height="29" viewBox="0 0 38 29" fill="none" xmlns="http://www.w3.org/2000/svg">
<path d="M37.7558 6.2938C37.7558 2.95354 35.2989 0.266479 32.263 0.266479C28.1507 0.0742278 23.9568 0 19.6709 0H18.3348C14.0593 0 9.85795 0.074228 5.74571 0.267221C2.7172 0.267221 0.26025 2.96912 0.26025 6.30939C0.0746795 8.95117 -0.0040023 11.5937 0.000451387 14.2362C-0.00697142 16.8787 0.0771538 19.5237 0.252827 22.1712C0.252827 25.5115 2.70978 28.2208 5.73828 28.2208C10.0584 28.4212 14.4898 28.5103 18.9954 28.5029C23.5085 28.5177 27.9275 28.4237 32.2526 28.2208C35.2885 28.2208 37.7454 25.5115 37.7454 22.1712C37.9236 19.5213 38.0052 16.8787 37.9978 14.2288C38.0146 11.5863 37.934 8.94127 37.7558 6.2938ZM15.3657 21.518V6.93216L26.1287 14.2214L15.3657 21.518Z" fill="black"/>
</svg>
